<svg width="35" height="31" viewBox="0 0 35 31" fill="none" xmlns="http://www.w3.org/2000/svg">
<path d="M20.5592 13.3999H18.8476V11.6883C18.8476 11.2344 18.6673 10.799 18.3463 10.4781C18.0253 10.1571 17.59 9.97676 17.1361 9.97676C16.6821 9.97676 16.2468 10.1571 15.9258 10.4781C15.6048 10.799 15.4245 11.2344 15.4245 11.6883V13.3999H13.713C13.259 13.3999 12.8237 13.5802 12.5027 13.9012C12.1817 14.2222 12.0014 14.6575 12.0014 15.1114C12.0014 15.5654 12.1817 16.0007 12.5027 16.3217C12.8237 16.6427 13.259 16.823 13.713 16.823H15.4245V18.5345C15.4245 18.9885 15.6048 19.4238 15.9258 19.7448C16.2468 20.0658 16.6821 20.2461 17.1361 20.2461C17.59 20.2461 18.0253 20.0658 18.3463 19.7448C18.6673 19.4238 18.8476 18.9885 18.8476 18.5345V16.823H20.5592C21.0131 16.823 21.4484 16.6427 21.7694 16.3217C22.0904 16.0007 22.2707 15.5654 22.2707 15.1114C22.2707 14.6575 22.0904 14.2222 21.7694 13.9012C21.4484 13.5802 21.0131 13.3999 20.5592 13.3999ZM31.1023 3.13055C29.2773 1.32436 26.8668 0.229934 24.3058 0.0447632C21.7448 -0.140408 19.2019 0.595868 17.1361 2.12074C14.9584 0.500987 12.2478 -0.233485 9.55032 0.0652257C6.85279 0.363936 4.36863 1.67364 2.59808 3.7306C0.827537 5.78755 -0.0978724 8.43897 0.00820759 11.1509C0.114288 13.8629 1.24398 16.4339 3.16979 18.3463L13.4391 28.7012C14.4019 29.6627 15.7069 30.2028 17.0676 30.2028C18.4283 30.2028 19.7333 29.6627 20.6961 28.7012L30.9654 18.3463C31.9768 17.3581 32.783 16.1798 33.3375 14.8791C33.8921 13.5783 34.1841 12.1808 34.1968 10.7669C34.2096 9.35291 33.9427 7.95038 33.4117 6.63989C32.8806 5.32939 32.0958 4.13676 31.1023 3.13055ZM28.689 15.8987L18.4197 26.1681C18.2606 26.3285 18.0713 26.4558 17.8627 26.5427C17.6542 26.6296 17.4305 26.6743 17.2045 26.6743C16.9786 26.6743 16.7549 26.6296 16.5463 26.5427C16.3377 26.4558 16.1484 26.3285 15.9893 26.1681L5.72 15.8987C4.37773 14.5267 3.6261 12.6835 3.6261 10.7641C3.6261 8.84463 4.37773 7.00149 5.72 5.62942C7.0878 4.27898 8.93254 3.52176 10.8547 3.52176C12.7768 3.52176 14.6215 4.27898 15.9893 5.62942C16.1484 5.78984 16.3377 5.91717 16.5463 6.00406C16.7549 6.09096 16.9786 6.13569 17.2045 6.13569C17.4305 6.13569 17.6542 6.09096 17.8627 6.00406C18.0713 5.91717 18.2606 5.78984 18.4197 5.62942C19.7875 4.27898 21.6323 3.52176 23.5544 3.52176C25.4765 3.52176 27.3212 4.27898 28.689 5.62942C30.0416 7.00302 30.7997 8.85344 30.7997 10.7812C30.7997 12.7089 30.0416 14.5594 28.689 15.933V15.8987Z" fill="white"/>
</svg>
