<svg width="31" height="29" viewBox="0 0 31 29" fill="none" xmlns="http://www.w3.org/2000/svg">
<path d="M30.4803 10.8906C30.3852 10.6152 30.2123 10.3734 29.9825 10.1943C29.7527 10.0153 29.4758 9.90677 29.1856 9.88194L20.6196 8.63241L16.7807 0.849239C16.6574 0.594711 16.4649 0.380054 16.2253 0.229857C15.9857 0.0796608 15.7086 0 15.4258 0C15.143 0 14.8659 0.0796608 14.6262 0.229857C14.3866 0.380054 14.1941 0.594711 14.0709 0.849239L10.232 8.61736L1.66596 9.88194C1.38733 9.92154 1.12539 10.0384 0.909844 10.2194C0.694303 10.4003 0.533798 10.6381 0.446542 10.9056C0.36667 11.1671 0.359503 11.4454 0.425808 11.7106C0.492114 11.9758 0.62939 12.218 0.822904 12.4111L7.04041 18.4329L5.53496 26.9839C5.48122 27.2661 5.50936 27.5578 5.61606 27.8246C5.72277 28.0913 5.90358 28.322 6.13714 28.4893C6.36479 28.652 6.6333 28.7481 6.91252 28.7667C7.19174 28.7853 7.47063 28.7258 7.71787 28.5947L15.4258 24.5751L23.1036 28.6097C23.3149 28.7289 23.5535 28.7912 23.7961 28.7904C24.115 28.7915 24.426 28.6914 24.6843 28.5044C24.9179 28.337 25.0987 28.1064 25.2054 27.8396C25.3121 27.5729 25.3402 27.2811 25.2865 26.9989L23.781 18.4479L29.9985 12.4261C30.2159 12.242 30.3765 12 30.4618 11.7281C30.5471 11.4563 30.5535 11.1659 30.4803 10.8906Z" fill="#E7C201"/>
</svg>
