<svg width="31" height="29" viewBox="0 0 31 29" fill="none" xmlns="http://www.w3.org/2000/svg">
<path d="M30.2898 10.8906C30.1948 10.6152 30.0218 10.3734 29.792 10.1943C29.5622 10.0153 29.2854 9.90677 28.9951 9.88194L20.4291 8.63241L16.5902 0.849239C16.467 0.594711 16.2745 0.380054 16.0349 0.229857C15.7952 0.0796608 15.5181 0 15.2353 0C14.9525 0 14.6754 0.0796608 14.4358 0.229857C14.1962 0.380054 14.0037 0.594711 13.8804 0.849239L10.0415 8.61736L1.47553 9.88194C1.1969 9.92154 0.934956 10.0384 0.719415 10.2194C0.503874 10.4003 0.343368 10.6381 0.256112 10.9056C0.17624 11.1671 0.169073 11.4454 0.235379 11.7106C0.301684 11.9758 0.438961 12.218 0.632475 12.4111L6.84998 18.4329L5.34453 26.9839C5.29079 27.2661 5.31893 27.5578 5.42563 27.8246C5.53234 28.0913 5.71315 28.322 5.94671 28.4893C6.17436 28.652 6.44287 28.7481 6.72209 28.7667C7.00131 28.7853 7.2802 28.7258 7.52744 28.5947L15.2353 24.5751L22.9131 28.6097C23.1244 28.7289 23.3631 28.7912 23.6056 28.7904C23.9245 28.7915 24.2355 28.6914 24.4939 28.5044C24.7274 28.337 24.9082 28.1064 25.0149 27.8396C25.1216 27.5729 25.1498 27.2811 25.096 26.9989L23.5906 18.4479L29.8081 12.4261C30.0255 12.242 30.1861 12 30.2714 11.7281C30.3567 11.4563 30.3631 11.1659 30.2898 10.8906ZM21.0313 16.9124C20.8548 17.0832 20.7227 17.2945 20.6466 17.5281C20.5705 17.7616 20.5527 18.0102 20.5947 18.2522L21.6787 24.5601L16.0182 21.5492C15.8004 21.4332 15.5574 21.3725 15.3106 21.3725C15.0638 21.3725 14.8209 21.4332 14.603 21.5492L8.94256 24.5601L10.0265 18.2522C10.0685 18.0102 10.0507 17.7616 9.97464 17.5281C9.89854 17.2945 9.76646 17.0832 9.5899 16.9124L5.07355 12.396L11.4115 11.4777C11.6554 11.4438 11.8872 11.3506 12.0867 11.2062C12.2862 11.0619 12.4472 10.8708 12.5556 10.6497L15.2353 4.91395L18.0656 10.6648C18.174 10.8858 18.3351 11.0769 18.5345 11.2213C18.734 11.3656 18.9658 11.4588 19.2097 11.4928L25.5477 12.4111L21.0313 16.9124Z" fill="#E7C201"/>
</svg>
