<svg width="185" height="83" viewBox="0 0 185 83" fill="none" xmlns="http://www.w3.org/2000/svg">
<path d="M16.032 54C15.36 54 14.784 53.76 14.304 53.28C13.824 52.8 13.584 52.208 13.584 51.504V40.32L0.768 20.4C0.352 19.728 0.192 19.104 0.288 18.528C0.384 17.92 0.656 17.44 1.104 17.088C1.584 16.704 2.128 16.512 2.736 16.512C3.28 16.512 3.712 16.64 4.032 16.896C4.352 17.12 4.656 17.456 4.944 17.904L17.136 37.248H15.216L27.6 17.712C27.856 17.328 28.16 17.04 28.512 16.848C28.864 16.624 29.296 16.512 29.808 16.512C30.384 16.512 30.864 16.72 31.248 17.136C31.632 17.52 31.856 18.016 31.92 18.624C31.984 19.2 31.824 19.792 31.44 20.4L18.528 40.32V51.504C18.528 52.208 18.288 52.8 17.808 53.28C17.328 53.76 16.736 54 16.032 54ZM43.839 54.192C41.247 54.192 38.959 53.632 36.975 52.512C34.991 51.36 33.423 49.792 32.271 47.808C31.151 45.792 30.591 43.488 30.591 40.896C30.591 38.272 31.151 35.968 32.271 33.984C33.423 31.968 34.991 30.4 36.975 29.28C38.959 28.128 41.247 27.552 43.839 27.552C46.399 27.552 48.671 28.128 50.655 29.28C52.639 30.4 54.191 31.968 55.311 33.984C56.463 35.968 57.039 38.272 57.039 40.896C57.039 43.488 56.479 45.792 55.359 47.808C54.239 49.792 52.687 51.36 50.703 52.512C48.719 53.632 46.431 54.192 43.839 54.192ZM43.839 49.872C45.503 49.872 46.975 49.488 48.255 48.72C49.535 47.952 50.527 46.896 51.231 45.552C51.967 44.208 52.335 42.656 52.335 40.896C52.335 39.136 51.967 37.584 51.231 36.24C50.527 34.864 49.535 33.792 48.255 33.024C46.975 32.256 45.503 31.872 43.839 31.872C42.175 31.872 40.703 32.256 39.423 33.024C38.143 33.792 37.135 34.864 36.399 36.24C35.663 37.584 35.295 39.136 35.295 40.896C35.295 42.656 35.663 44.208 36.399 45.552C37.135 46.896 38.143 47.952 39.423 48.72C40.703 49.488 42.175 49.872 43.839 49.872ZM75.6056 54.24C73.3976 54.24 71.4136 53.776 69.6536 52.848C67.9256 51.888 66.5496 50.496 65.5256 48.672C64.5336 46.848 64.0376 44.608 64.0376 41.952V30.144C64.0376 29.44 64.2616 28.864 64.7096 28.416C65.1896 27.936 65.7816 27.696 66.4856 27.696C67.1896 27.696 67.7656 27.936 68.2136 28.416C68.6936 28.864 68.9336 29.44 68.9336 30.144V41.952C68.9336 43.744 69.2696 45.232 69.9416 46.416C70.6136 47.568 71.5256 48.432 72.6776 49.008C73.8296 49.552 75.1256 49.824 76.5656 49.824C77.9416 49.824 79.1576 49.552 80.2136 49.008C81.3016 48.464 82.1656 47.728 82.8056 46.8C83.4456 45.872 83.7656 44.832 83.7656 43.68H86.7896C86.7896 45.664 86.2936 47.456 85.3016 49.056C84.3416 50.656 83.0136 51.92 81.3176 52.848C79.6536 53.776 77.7496 54.24 75.6056 54.24ZM86.2136 54C85.5096 54 84.9176 53.776 84.4376 53.328C83.9896 52.848 83.7656 52.256 83.7656 51.552V30.144C83.7656 29.408 83.9896 28.816 84.4376 28.368C84.9176 27.92 85.5096 27.696 86.2136 27.696C86.9496 27.696 87.5416 27.92 87.9896 28.368C88.4376 28.816 88.6616 29.408 88.6616 30.144V51.552C88.6616 52.256 88.4376 52.848 87.9896 53.328C87.5416 53.776 86.9496 54 86.2136 54ZM99.8764 37.584C99.8764 35.664 100.34 33.952 101.268 32.448C102.228 30.912 103.508 29.696 105.108 28.8C106.708 27.904 108.468 27.456 110.388 27.456C112.308 27.456 113.732 27.776 114.66 28.416C115.62 29.024 115.988 29.76 115.764 30.624C115.668 31.072 115.476 31.424 115.188 31.68C114.932 31.904 114.628 32.048 114.276 32.112C113.924 32.176 113.54 32.16 113.124 32.064C111.076 31.648 109.236 31.616 107.604 31.968C105.972 32.32 104.676 32.976 103.716 33.936C102.788 34.896 102.324 36.112 102.324 37.584H99.8764ZM99.9244 54C99.1564 54 98.5644 53.808 98.1484 53.424C97.7324 53.008 97.5244 52.4 97.5244 51.6V30.144C97.5244 29.376 97.7324 28.784 98.1484 28.368C98.5644 27.952 99.1564 27.744 99.9244 27.744C100.724 27.744 101.316 27.952 101.7 28.368C102.116 28.752 102.324 29.344 102.324 30.144V51.6C102.324 52.368 102.116 52.96 101.7 53.376C101.316 53.792 100.724 54 99.9244 54Z" fill="#5C8AFF"/>
<path d="M123.748 54C123.172 54 122.708 53.84 122.356 53.52C122.036 53.168 121.876 52.704 121.876 52.128V29.616C121.876 29.04 122.036 28.592 122.356 28.272C122.708 27.92 123.172 27.744 123.748 27.744C124.292 27.744 124.724 27.92 125.044 28.272C125.396 28.592 125.572 29.04 125.572 29.616V52.128C125.572 52.704 125.396 53.168 125.044 53.52C124.724 53.84 124.292 54 123.748 54ZM123.7 22.752C122.996 22.752 122.388 22.496 121.876 21.984C121.364 21.472 121.108 20.848 121.108 20.112C121.108 19.312 121.364 18.688 121.876 18.24C122.42 17.76 123.044 17.52 123.748 17.52C124.42 17.52 125.012 17.76 125.524 18.24C126.068 18.688 126.34 19.312 126.34 20.112C126.34 20.848 126.084 21.472 125.572 21.984C125.06 22.496 124.436 22.752 123.7 22.752ZM145.495 54C143.799 54 142.279 53.6 140.935 52.8C139.623 52 138.583 50.912 137.815 49.536C137.047 48.128 136.663 46.528 136.663 44.736V21.264C136.663 20.72 136.823 20.272 137.143 19.92C137.495 19.568 137.943 19.392 138.487 19.392C139.031 19.392 139.479 19.568 139.831 19.92C140.183 20.272 140.359 20.72 140.359 21.264V44.736C140.359 46.368 140.839 47.712 141.799 48.768C142.759 49.792 143.991 50.304 145.495 50.304H146.791C147.303 50.304 147.719 50.48 148.039 50.832C148.359 51.184 148.519 51.632 148.519 52.176C148.519 52.72 148.327 53.168 147.943 53.52C147.559 53.84 147.079 54 146.503 54H145.495ZM133.543 31.92C133.063 31.92 132.663 31.776 132.343 31.488C132.023 31.168 131.863 30.784 131.863 30.336C131.863 29.856 132.023 29.472 132.343 29.184C132.663 28.864 133.063 28.704 133.543 28.704H145.783C146.263 28.704 146.663 28.864 146.983 29.184C147.303 29.472 147.463 29.856 147.463 30.336C147.463 30.784 147.303 31.168 146.983 31.488C146.663 31.776 146.263 31.92 145.783 31.92H133.543ZM151.656 28.512C151.272 28.512 150.936 28.336 150.648 27.984C150.392 27.632 150.36 27.232 150.552 26.784C151.032 25.664 151.32 24.72 151.416 23.952C151.512 23.184 151.528 22.528 151.464 21.984C151.4 21.408 151.304 20.864 151.176 20.352C151.048 19.84 150.984 19.264 150.984 18.624C150.984 17.856 151.224 17.248 151.704 16.8C152.184 16.32 152.776 16.08 153.48 16.08C154.28 16.08 154.92 16.432 155.4 17.136C155.88 17.808 156.12 18.736 156.12 19.92C156.12 20.656 155.96 21.504 155.64 22.464C155.352 23.424 154.984 24.368 154.536 25.296C154.088 26.224 153.608 26.992 153.096 27.6C152.584 28.208 152.104 28.512 151.656 28.512ZM172.199 54.24C170.311 54.24 168.439 53.92 166.583 53.28C164.727 52.64 163.223 51.68 162.071 50.4C161.719 50.016 161.575 49.584 161.639 49.104C161.703 48.624 161.943 48.208 162.359 47.856C162.807 47.536 163.271 47.408 163.751 47.472C164.231 47.536 164.631 47.744 164.951 48.096C165.719 48.992 166.727 49.68 167.975 50.16C169.255 50.64 170.663 50.88 172.199 50.88C174.567 50.88 176.279 50.48 177.335 49.68C178.391 48.848 178.935 47.856 178.967 46.704C178.967 45.552 178.423 44.608 177.335 43.872C176.247 43.104 174.455 42.512 171.959 42.096C168.727 41.584 166.359 40.688 164.855 39.408C163.351 38.128 162.599 36.608 162.599 34.848C162.599 33.216 163.031 31.856 163.895 30.768C164.759 29.68 165.911 28.864 167.351 28.32C168.791 27.776 170.375 27.504 172.103 27.504C174.247 27.504 176.087 27.872 177.623 28.608C179.191 29.344 180.455 30.336 181.415 31.584C181.735 32 181.863 32.432 181.799 32.88C181.735 33.328 181.479 33.696 181.031 33.984C180.647 34.208 180.199 34.288 179.687 34.224C179.207 34.128 178.791 33.888 178.439 33.504C177.639 32.576 176.711 31.904 175.655 31.488C174.599 31.04 173.383 30.816 172.007 30.816C170.247 30.816 168.839 31.184 167.783 31.92C166.727 32.624 166.199 33.52 166.199 34.608C166.199 35.344 166.391 35.984 166.775 36.528C167.191 37.072 167.879 37.552 168.839 37.968C169.831 38.384 171.207 38.736 172.967 39.024C175.367 39.408 177.255 39.984 178.631 40.752C180.039 41.488 181.031 42.368 181.607 43.392C182.215 44.384 182.519 45.472 182.519 46.656C182.519 48.16 182.071 49.488 181.175 50.64C180.311 51.76 179.095 52.64 177.527 53.28C175.991 53.92 174.215 54.24 172.199 54.24Z" fill="white"/>
<path d="M132.508 16.9731C132.456 16.822 132.361 16.6894 132.235 16.5912C132.109 16.493 131.957 16.4335 131.798 16.4199L127.1 15.7345L124.995 11.4658C124.927 11.3262 124.821 11.2084 124.69 11.1261C124.559 11.0437 124.407 11 124.252 11C124.096 11 123.944 11.0437 123.813 11.1261C123.682 11.2084 123.576 11.3262 123.508 11.4658L121.403 15.7263L116.705 16.4199C116.552 16.4416 116.408 16.5057 116.29 16.6049C116.172 16.7042 116.084 16.8346 116.036 16.9813C115.992 17.1247 115.988 17.2773 116.025 17.4228C116.061 17.5683 116.136 17.7011 116.242 17.807L119.653 21.1097L118.827 25.7996C118.797 25.9544 118.813 26.1144 118.871 26.2607C118.93 26.407 119.029 26.5335 119.157 26.6253C119.282 26.7145 119.429 26.7672 119.582 26.7774C119.736 26.7876 119.888 26.7549 120.024 26.6831L124.252 24.4785L128.463 26.6913C128.578 26.7567 128.709 26.7908 128.842 26.7904C129.017 26.791 129.188 26.7361 129.329 26.6335C129.458 26.5417 129.557 26.4152 129.615 26.2689C129.674 26.1226 129.689 25.9626 129.66 25.8078L128.834 21.118L132.244 17.8153C132.363 17.7143 132.451 17.5815 132.498 17.4324C132.545 17.2833 132.548 17.1241 132.508 16.9731Z" fill="#E7C201"/>
<path d="M1.512 16C1.284 16 1.086 15.922 0.918 15.766C0.75 15.598 0.666 15.394 0.666 15.154V2.788C0.666 2.536 0.744 2.332 0.9 2.176C1.068 2.02 1.272 1.942 1.512 1.942H9.774C10.026 1.942 10.224 2.02 10.368 2.176C10.524 2.32 10.602 2.512 10.602 2.752C10.602 2.968 10.524 3.154 10.368 3.31C10.224 3.454 10.026 3.526 9.774 3.526H2.358V8.134H7.704C7.956 8.134 8.16 8.212 8.316 8.368C8.472 8.512 8.55 8.698 8.55 8.926C8.55 9.154 8.472 9.346 8.316 9.502C8.16 9.646 7.956 9.718 7.704 9.718H2.358V15.154C2.358 15.394 2.274 15.598 2.106 15.766C1.95 15.922 1.752 16 1.512 16ZM17.154 16.072C16.254 16.072 15.45 15.856 14.742 15.424C14.034 14.992 13.476 14.398 13.068 13.642C12.66 12.886 12.456 12.034 12.456 11.086C12.456 10.126 12.672 9.274 13.104 8.53C13.548 7.774 14.142 7.18 14.886 6.748C15.642 6.304 16.488 6.082 17.424 6.082C18.372 6.082 19.218 6.304 19.962 6.748C20.706 7.18 21.294 7.774 21.726 8.53C22.17 9.286 22.398 10.138 22.41 11.086L21.762 11.248C21.762 12.16 21.558 12.982 21.15 13.714C20.742 14.446 20.19 15.022 19.494 15.442C18.81 15.862 18.03 16.072 17.154 16.072ZM17.424 14.596C18.072 14.596 18.648 14.446 19.152 14.146C19.656 13.834 20.052 13.414 20.34 12.886C20.64 12.346 20.79 11.746 20.79 11.086C20.79 10.414 20.64 9.814 20.34 9.286C20.052 8.746 19.656 8.326 19.152 8.026C18.648 7.714 18.072 7.558 17.424 7.558C16.8 7.558 16.23 7.714 15.714 8.026C15.198 8.326 14.79 8.746 14.49 9.286C14.202 9.814 14.058 10.414 14.058 11.086C14.058 11.746 14.202 12.346 14.49 12.886C14.79 13.414 15.198 13.834 15.714 14.146C16.23 14.446 16.8 14.596 17.424 14.596ZM21.564 16.018C21.324 16.018 21.126 15.94 20.97 15.784C20.814 15.628 20.736 15.43 20.736 15.19V12.31L21.078 10.582L22.41 11.086V15.19C22.41 15.43 22.326 15.628 22.158 15.784C22.002 15.94 21.804 16.018 21.564 16.018ZM28.0171 15.982C27.6691 15.982 27.4051 15.802 27.2251 15.442L23.3551 7.234C23.2591 7.042 23.2471 6.856 23.3191 6.676C23.3911 6.496 23.5351 6.358 23.7511 6.262C23.9311 6.166 24.1171 6.154 24.3091 6.226C24.5011 6.286 24.6451 6.406 24.7411 6.586L28.4131 14.506H27.6031L31.2211 6.586C31.3171 6.394 31.4671 6.268 31.6711 6.208C31.8751 6.148 32.0791 6.16 32.2831 6.244C32.4751 6.34 32.6071 6.484 32.6791 6.676C32.7511 6.856 32.7391 7.036 32.6431 7.216L28.7911 15.442C28.6231 15.802 28.3651 15.982 28.0171 15.982Z" fill="white"/>
<path d="M26.77 79V68.5H27.865V77.2L34.585 68.5H35.59V79H34.495V70.315L27.775 79H26.77ZM38.9533 79V71.125H40.0183V74.605H44.9833V71.125H46.0483V79H44.9833V75.52H40.0183V79H38.9533ZM50.6504 79V71.77L50.9204 72.055H47.6654V71.125H54.7004V72.055H51.4454L51.7154 71.77V79H50.6504ZM59.324 79.075C58.504 79.075 57.784 78.905 57.164 78.565C56.544 78.215 56.059 77.74 55.709 77.14C55.359 76.53 55.184 75.835 55.184 75.055C55.184 74.275 55.349 73.585 55.679 72.985C56.019 72.385 56.479 71.915 57.059 71.575C57.649 71.225 58.309 71.05 59.039 71.05C59.779 71.05 60.434 71.22 61.004 71.56C61.584 71.89 62.039 72.36 62.369 72.97C62.699 73.57 62.864 74.265 62.864 75.055C62.864 75.105 62.859 75.16 62.849 75.22C62.849 75.27 62.849 75.325 62.849 75.385H55.994V74.59H62.279L61.859 74.905C61.859 74.335 61.734 73.83 61.484 73.39C61.244 72.94 60.914 72.59 60.494 72.34C60.074 72.09 59.589 71.965 59.039 71.965C58.499 71.965 58.014 72.09 57.584 72.34C57.154 72.59 56.819 72.94 56.579 73.39C56.339 73.84 56.219 74.355 56.219 74.935V75.1C56.219 75.7 56.349 76.23 56.609 76.69C56.879 77.14 57.249 77.495 57.719 77.755C58.199 78.005 58.744 78.13 59.354 78.13C59.834 78.13 60.279 78.045 60.689 77.875C61.109 77.705 61.469 77.445 61.769 77.095L62.369 77.785C62.019 78.205 61.579 78.525 61.049 78.745C60.529 78.965 59.954 79.075 59.324 79.075ZM69.3614 79.075C68.6814 79.075 68.0664 78.92 67.5164 78.61C66.9664 78.29 66.5264 77.835 66.1964 77.245C65.8764 76.645 65.7164 75.915 65.7164 75.055C65.7164 74.195 65.8764 73.47 66.1964 72.88C66.5164 72.28 66.9514 71.825 67.5014 71.515C68.0514 71.205 68.6714 71.05 69.3614 71.05C70.1114 71.05 70.7814 71.22 71.3714 71.56C71.9714 71.89 72.4414 72.36 72.7814 72.97C73.1214 73.57 73.2914 74.265 73.2914 75.055C73.2914 75.855 73.1214 76.555 72.7814 77.155C72.4414 77.755 71.9714 78.225 71.3714 78.565C70.7814 78.905 70.1114 79.075 69.3614 79.075ZM65.2964 81.91V71.125H66.3164V73.495L66.2114 75.07L66.3614 76.66V81.91H65.2964ZM69.2864 78.13C69.8464 78.13 70.3464 78.005 70.7864 77.755C71.2264 77.495 71.5764 77.135 71.8364 76.675C72.0964 76.205 72.2264 75.665 72.2264 75.055C72.2264 74.445 72.0964 73.91 71.8364 73.45C71.5764 72.99 71.2264 72.63 70.7864 72.37C70.3464 72.11 69.8464 71.98 69.2864 71.98C68.7264 71.98 68.2214 72.11 67.7714 72.37C67.3314 72.63 66.9814 72.99 66.7214 73.45C66.4714 73.91 66.3464 74.445 66.3464 75.055C66.3464 75.665 66.4714 76.205 66.7214 76.675C66.9814 77.135 67.3314 77.495 67.7714 77.755C68.2214 78.005 68.7264 78.13 69.2864 78.13ZM75.6546 79V71.125H76.7196V74.605H81.6846V71.125H82.7496V79H81.6846V75.52H76.7196V79H75.6546ZM89.2267 79.075C88.4067 79.075 87.6867 78.905 87.0667 78.565C86.4467 78.215 85.9617 77.74 85.6117 77.14C85.2617 76.53 85.0867 75.835 85.0867 75.055C85.0867 74.275 85.2517 73.585 85.5817 72.985C85.9217 72.385 86.3817 71.915 86.9617 71.575C87.5517 71.225 88.2117 71.05 88.9417 71.05C89.6817 71.05 90.3367 71.22 90.9067 71.56C91.4867 71.89 91.9417 72.36 92.2717 72.97C92.6017 73.57 92.7667 74.265 92.7667 75.055C92.7667 75.105 92.7617 75.16 92.7517 75.22C92.7517 75.27 92.7517 75.325 92.7517 75.385H85.8967V74.59H92.1817L91.7617 74.905C91.7617 74.335 91.6367 73.83 91.3867 73.39C91.1467 72.94 90.8167 72.59 90.3967 72.34C89.9767 72.09 89.4917 71.965 88.9417 71.965C88.4017 71.965 87.9167 72.09 87.4867 72.34C87.0567 72.59 86.7217 72.94 86.4817 73.39C86.2417 73.84 86.1217 74.355 86.1217 74.935V75.1C86.1217 75.7 86.2517 76.23 86.5117 76.69C86.7817 77.14 87.1517 77.495 87.6217 77.755C88.1017 78.005 88.6467 78.13 89.2567 78.13C89.7367 78.13 90.1817 78.045 90.5917 77.875C91.0117 77.705 91.3717 77.445 91.6717 77.095L92.2717 77.785C91.9217 78.205 91.4817 78.525 90.9517 78.745C90.4317 78.965 89.8567 79.075 89.2267 79.075ZM96.3476 79V71.77L96.6176 72.055H93.3626V71.125H100.398V72.055H97.1426L97.4126 71.77V79H96.3476ZM106.013 79V71.125H113.093V79H112.028V71.77L112.298 72.055H106.808L107.078 71.77V79H106.013ZM120.261 79.075C119.581 79.075 118.966 78.92 118.416 78.61C117.866 78.29 117.426 77.835 117.096 77.245C116.776 76.645 116.616 75.915 116.616 75.055C116.616 74.195 116.776 73.47 117.096 72.88C117.416 72.28 117.851 71.825 118.401 71.515C118.951 71.205 119.571 71.05 120.261 71.05C121.011 71.05 121.681 71.22 122.271 71.56C122.871 71.89 123.341 72.36 123.681 72.97C124.021 73.57 124.191 74.265 124.191 75.055C124.191 75.855 124.021 76.555 123.681 77.155C123.341 77.755 122.871 78.225 122.271 78.565C121.681 78.905 121.011 79.075 120.261 79.075ZM116.196 81.91V71.125H117.216V73.495L117.111 75.07L117.261 76.66V81.91H116.196ZM120.186 78.13C120.746 78.13 121.246 78.005 121.686 77.755C122.126 77.495 122.476 77.135 122.736 76.675C122.996 76.205 123.126 75.665 123.126 75.055C123.126 74.445 122.996 73.91 122.736 73.45C122.476 72.99 122.126 72.63 121.686 72.37C121.246 72.11 120.746 71.98 120.186 71.98C119.626 71.98 119.121 72.11 118.671 72.37C118.231 72.63 117.881 72.99 117.621 73.45C117.371 73.91 117.246 74.445 117.246 75.055C117.246 75.665 117.371 76.205 117.621 76.675C117.881 77.135 118.231 77.495 118.671 77.755C119.121 78.005 119.626 78.13 120.186 78.13ZM129.794 79.075C129.034 79.075 128.349 78.905 127.739 78.565C127.139 78.215 126.664 77.74 126.314 77.14C125.964 76.53 125.789 75.835 125.789 75.055C125.789 74.265 125.964 73.57 126.314 72.97C126.664 72.37 127.139 71.9 127.739 71.56C128.339 71.22 129.024 71.05 129.794 71.05C130.574 71.05 131.264 71.22 131.864 71.56C132.474 71.9 132.949 72.37 133.289 72.97C133.639 73.57 133.814 74.265 133.814 75.055C133.814 75.835 133.639 76.53 133.289 77.14C132.949 77.74 132.474 78.215 131.864 78.565C131.254 78.905 130.564 79.075 129.794 79.075ZM129.794 78.13C130.364 78.13 130.869 78.005 131.309 77.755C131.749 77.495 132.094 77.135 132.344 76.675C132.604 76.205 132.734 75.665 132.734 75.055C132.734 74.435 132.604 73.895 132.344 73.435C132.094 72.975 131.749 72.62 131.309 72.37C130.869 72.11 130.369 71.98 129.809 71.98C129.249 71.98 128.749 72.11 128.309 72.37C127.869 72.62 127.519 72.975 127.259 73.435C126.999 73.895 126.869 74.435 126.869 75.055C126.869 75.665 126.999 76.205 127.259 76.675C127.519 77.135 127.869 77.495 128.309 77.755C128.749 78.005 129.244 78.13 129.794 78.13ZM139.54 79.075C138.72 79.075 138 78.905 137.38 78.565C136.76 78.215 136.275 77.74 135.925 77.14C135.575 76.53 135.4 75.835 135.4 75.055C135.4 74.275 135.565 73.585 135.895 72.985C136.235 72.385 136.695 71.915 137.275 71.575C137.865 71.225 138.525 71.05 139.255 71.05C139.995 71.05 140.65 71.22 141.22 71.56C141.8 71.89 142.255 72.36 142.585 72.97C142.915 73.57 143.08 74.265 143.08 75.055C143.08 75.105 143.075 75.16 143.065 75.22C143.065 75.27 143.065 75.325 143.065 75.385H136.21V74.59H142.495L142.075 74.905C142.075 74.335 141.95 73.83 141.7 73.39C141.46 72.94 141.13 72.59 140.71 72.34C140.29 72.09 139.805 71.965 139.255 71.965C138.715 71.965 138.23 72.09 137.8 72.34C137.37 72.59 137.035 72.94 136.795 73.39C136.555 73.84 136.435 74.355 136.435 74.935V75.1C136.435 75.7 136.565 76.23 136.825 76.69C137.095 77.14 137.465 77.495 137.935 77.755C138.415 78.005 138.96 78.13 139.57 78.13C140.05 78.13 140.495 78.045 140.905 77.875C141.325 77.705 141.685 77.445 141.985 77.095L142.585 77.785C142.235 78.205 141.795 78.525 141.265 78.745C140.745 78.965 140.17 79.075 139.54 79.075ZM151.287 79L148.047 75.1L148.932 74.575L152.547 79H151.287ZM145.512 79V71.125H146.577V79H145.512ZM146.247 75.49V74.575H148.782V75.49H146.247ZM149.022 75.175L148.032 75.025L151.167 71.125H152.322L149.022 75.175ZM155.642 79V71.77L155.912 72.055H152.657V71.125H159.692V72.055H156.437L156.707 71.77V79H155.642Z" fill="#E9EFFF"/>
</svg>
